<svg width="38" height="38" viewBox="0 0 38 38" fill="none" xmlns="http://www.w3.org/2000/svg">
<path fill-rule="evenodd" clip-rule="evenodd" d="M25.3629 16.9079L21.0958 12.6409L24.1802 9.55494L28.4457 13.8204L25.3629 16.9079ZM30.7225 11.618L30.7209 11.6164L26.3858 7.28128C25.2125 6.11119 23.1969 6.05578 22.0854 7.17203L7.84176 21.4157C7.32559 21.9303 7.00576 22.6143 6.93926 23.3379L6.33918 29.9404C6.29801 30.4074 6.46426 30.8698 6.79676 31.2023C7.09601 31.5015 7.49976 31.6662 7.91618 31.6662C7.96526 31.6662 8.01276 31.6646 8.06026 31.6599L14.6628 31.0598C15.3879 30.9933 16.0703 30.675 16.5849 30.1604L30.8302 15.9152C31.9828 14.7594 31.9338 12.8309 30.7225 11.618Z" fill="#231F20"/>
<mask id="mask0_177_416" style="mask-type:luminance" maskUnits="userSpaceOnUse" x="6" y="6" width="26" height="26">
<path fill-rule="evenodd" clip-rule="evenodd" d="M25.3629 16.9079L21.0958 12.6409L24.1802 9.55494L28.4457 13.8204L25.3629 16.9079ZM30.7225 11.618L30.7209 11.6164L26.3858 7.28128C25.2125 6.11119 23.1969 6.05578 22.0854 7.17203L7.84176 21.4157C7.32559 21.9303 7.00576 22.6143 6.93926 23.3379L6.33918 29.9404C6.29801 30.4074 6.46426 30.8698 6.79676 31.2023C7.09601 31.5015 7.49976 31.6662 7.91618 31.6662C7.96526 31.6662 8.01276 31.6646 8.06026 31.6599L14.6628 31.0598C15.3879 30.9933 16.0703 30.675 16.5849 30.1604L30.8302 15.9152C31.9828 14.7594 31.9338 12.8309 30.7225 11.618Z" fill="white"/>
</mask>
<g mask="url(#mask0_177_416)">
<rect width="38" height="38" fill="#4423FF"/>
</g>
</svg>
