<svg width="1920" height="704" viewBox="0 0 1920 704" fill="none" xmlns="http://www.w3.org/2000/svg">
<mask id="path-1-outside-1_300_741" maskUnits="userSpaceOnUse" x="-623" y="0" width="3167" height="704" fill="black">
<rect fill="white" x="-623" width="3167" height="704"/>
<path d="M-541 70H-621V2H-387V70H-467V702H-541V70ZM-157.352 358L-130.352 702H-205.352L-231.352 395C-234.352 360 -240.352 355 -265.352 355H-277.352V702H-351.352V2H-220.352C-172.352 2 -159.352 28 -159.352 59V273L-219.352 284V290C-200.352 290 -161.352 306 -157.352 358ZM-277.352 70V287H-233.352V89C-233.352 74 -235.352 70 -247.352 70H-277.352ZM140.391 702H62.3906L50.3906 504H-5.60938L-17.6094 702H-95.6094L-31.6094 2H76.3906L140.391 702ZM19.3906 109L-0.609375 436H45.3906L25.3906 109H19.3906ZM249.109 2L330.109 425H336.109L331.109 2H404.109V702H323.109L244.109 292H238.109L243.109 702H171.109V2H249.109ZM643.547 398V634C643.547 675 631.547 702 585.547 702H509.547C463.547 702 432.547 668 440.547 610L470.547 392L539.547 405L515.547 577C508.547 627 517.547 634 550.547 634C564.547 634 569.547 630 569.547 615V427C569.547 357 558.547 345 528.547 319L481.547 279C455.547 257 442.547 236 442.547 181V54C442.547 18 450.547 2 487.547 2H558.547C631.547 2 642.547 41 632.547 116L620.547 202L551.547 188L558.547 135C566.547 78 563.547 70 532.547 70C519.547 70 516.547 75 516.547 85V163C516.547 209 521.547 216 545.547 236L579.547 265C617.547 297 643.547 323 643.547 398ZM775.922 702H723.922C685.922 702 678.922 686 678.922 650V54C678.922 18 685.922 2 722.922 2H807.922C865.922 2 883.922 41 873.922 116L861.922 201L792.922 188L799.922 135C807.922 78 808.922 69 761.922 69C751.922 69 750.922 73 750.922 85V610C750.922 632 750.922 635 763.922 635C774.922 635 772.922 630 777.922 595L807.922 370L880.922 384L850.922 605C840.922 676 838.922 702 775.922 702ZM1089.23 2V70H990.227V267H1077.23V335H989.227V615C989.227 627 989.227 634 999.227 634H1087.23V702H961.227C923.227 702 916.227 686 916.227 650L917.227 2H1089.23ZM1202.23 2L1283.23 425H1289.23L1284.23 2H1357.23V702H1276.23L1197.23 292H1191.23L1196.23 702H1124.23V2H1202.23ZM1603.55 54L1604.55 650C1604.55 686 1597.55 702 1560.55 702H1403.55L1402.55 2H1558.55C1596.55 2 1603.55 18 1603.55 54ZM1476.55 634H1521.55C1531.55 634 1531.55 627 1531.55 615L1530.55 89C1530.55 77.0001 1530.55 70 1520.55 70H1475.55L1476.55 634ZM1822.62 2V70H1723.62V267H1810.62V335H1722.62V615C1722.62 627 1722.62 634 1732.62 634H1820.62V702H1694.62C1656.62 702 1649.62 686 1649.62 650L1650.62 2H1822.62ZM1935.63 2L2016.63 425H2022.63L2017.63 2H2090.63V702H2009.63L1930.63 292H1924.63L1929.63 702H1857.63V2H1935.63ZM2228.07 702H2176.07C2138.07 702 2131.07 686 2131.07 650V54C2131.07 18 2138.07 2 2175.07 2H2260.07C2318.07 2 2336.07 41 2326.07 116L2314.07 201L2245.07 188L2252.07 135C2260.07 78 2261.07 69 2214.07 69C2204.07 69 2203.07 73 2203.07 85V610C2203.07 632 2203.07 635 2216.07 635C2227.07 635 2225.07 630 2230.07 595L2260.07 370L2333.07 384L2303.07 605C2293.07 676 2291.07 702 2228.07 702ZM2541.38 2V70H2442.38V267H2529.38V335H2441.38V615C2441.38 627 2441.38 634 2451.38 634H2539.38V702H2413.38C2375.38 702 2368.38 686 2368.38 650L2369.38 2H2541.38Z"/>
</mask>
<path d="M-541 70H-621V2H-387V70H-467V702H-541V70ZM-157.352 358L-130.352 702H-205.352L-231.352 395C-234.352 360 -240.352 355 -265.352 355H-277.352V702H-351.352V2H-220.352C-172.352 2 -159.352 28 -159.352 59V273L-219.352 284V290C-200.352 290 -161.352 306 -157.352 358ZM-277.352 70V287H-233.352V89C-233.352 74 -235.352 70 -247.352 70H-277.352ZM140.391 702H62.3906L50.3906 504H-5.60938L-17.6094 702H-95.6094L-31.6094 2H76.3906L140.391 702ZM19.3906 109L-0.609375 436H45.3906L25.3906 109H19.3906ZM249.109 2L330.109 425H336.109L331.109 2H404.109V702H323.109L244.109 292H238.109L243.109 702H171.109V2H249.109ZM643.547 398V634C643.547 675 631.547 702 585.547 702H509.547C463.547 702 432.547 668 440.547 610L470.547 392L539.547 405L515.547 577C508.547 627 517.547 634 550.547 634C564.547 634 569.547 630 569.547 615V427C569.547 357 558.547 345 528.547 319L481.547 279C455.547 257 442.547 236 442.547 181V54C442.547 18 450.547 2 487.547 2H558.547C631.547 2 642.547 41 632.547 116L620.547 202L551.547 188L558.547 135C566.547 78 563.547 70 532.547 70C519.547 70 516.547 75 516.547 85V163C516.547 209 521.547 216 545.547 236L579.547 265C617.547 297 643.547 323 643.547 398ZM775.922 702H723.922C685.922 702 678.922 686 678.922 650V54C678.922 18 685.922 2 722.922 2H807.922C865.922 2 883.922 41 873.922 116L861.922 201L792.922 188L799.922 135C807.922 78 808.922 69 761.922 69C751.922 69 750.922 73 750.922 85V610C750.922 632 750.922 635 763.922 635C774.922 635 772.922 630 777.922 595L807.922 370L880.922 384L850.922 605C840.922 676 838.922 702 775.922 702ZM1089.23 2V70H990.227V267H1077.23V335H989.227V615C989.227 627 989.227 634 999.227 634H1087.23V702H961.227C923.227 702 916.227 686 916.227 650L917.227 2H1089.23ZM1202.23 2L1283.23 425H1289.23L1284.23 2H1357.23V702H1276.23L1197.23 292H1191.23L1196.23 702H1124.23V2H1202.23ZM1603.55 54L1604.55 650C1604.55 686 1597.55 702 1560.55 702H1403.55L1402.55 2H1558.55C1596.55 2 1603.55 18 1603.55 54ZM1476.55 634H1521.55C1531.55 634 1531.55 627 1531.55 615L1530.55 89C1530.55 77.0001 1530.55 70 1520.55 70H1475.55L1476.55 634ZM1822.62 2V70H1723.62V267H1810.62V335H1722.62V615C1722.62 627 1722.62 634 1732.62 634H1820.62V702H1694.62C1656.62 702 1649.62 686 1649.62 650L1650.62 2H1822.62ZM1935.63 2L2016.63 425H2022.63L2017.63 2H2090.63V702H2009.63L1930.63 292H1924.63L1929.63 702H1857.63V2H1935.63ZM2228.07 702H2176.07C2138.07 702 2131.07 686 2131.07 650V54C2131.07 18 2138.07 2 2175.07 2H2260.07C2318.07 2 2336.07 41 2326.07 116L2314.07 201L2245.07 188L2252.07 135C2260.07 78 2261.07 69 2214.07 69C2204.07 69 2203.07 73 2203.07 85V610C2203.07 632 2203.07 635 2216.07 635C2227.07 635 2225.07 630 2230.07 595L2260.07 370L2333.07 384L2303.07 605C2293.07 676 2291.07 702 2228.07 702ZM2541.38 2V70H2442.38V267H2529.38V335H2441.38V615C2441.38 627 2441.38 634 2451.38 634H2539.38V702H2413.38C2375.38 702 2368.38 686 2368.38 650L2369.38 2H2541.38Z" stroke="url(#paint0_linear_300_741)" stroke-opacity="0.15" stroke-width="4" mask="url(#path-1-outside-1_300_741)"/>
<defs>
<linearGradient id="paint0_linear_300_741" x1="935" y1="-34.5" x2="930.5" y2="833" gradientUnits="userSpaceOnUse">
<stop/>
<stop offset="0.793308" stop-color="#F0F0F0"/>
</linearGradient>
</defs>
</svg>
